<?xml version="1.0" encoding="UTF-8" standalone="no"?>
<svg
   xmlns:dc="http://purl.org/dc/elements/1.1/"
   xmlns:cc="http://creativecommons.org/ns#"
   xmlns:rdf="http://www.w3.org/1999/02/22-rdf-syntax-ns#"
   xmlns:svg="http://www.w3.org/2000/svg"
   xmlns="http://www.w3.org/2000/svg"
   id="svg15"
   xml:space="preserve"
   viewBox="0 0 1024 768"
   y="0px"
   x="0px"
   version="1.1"><metadata
     id="metadata21"><rdf:RDF><cc:Work
         rdf:about=""><dc:format>image/svg+xml</dc:format><dc:type
           rdf:resource="http://purl.org/dc/dcmitype/StillImage" /></cc:Work></rdf:RDF></metadata><defs
     id="defs19" /><g
     id="logo-group"><g
       style="font-variant-ligatures:none;fill:#046695"
       aria-label="NEURA HEALTH"
       id="title"><path
         transform="matrix(0.83333333,0,0,0.83333333,22.846925,404.85)"
         style="font-variant-ligatures:none"
         d="m 272.06619,-50.4 h -3.672 v 43.776 l -34.272,-43.776 h -3.096 V 0 h 3.672 V -43.776 L 269.04219,0 h 3.024 z"
         id="path451944" /><path
         transform="matrix(0.83333333,0,0,0.83333333,35.346925,404.85)"
         style="font-variant-ligatures:none"
         d="m 322.28281,-27.216 h -32.616 v 3.24 h 32.616 z m 0,-23.184 h -32.616 v 3.312 h 32.616 z m -32.616,47.088 V 0 h 32.616 v -3.312 z"
         id="path451946" /><path
         transform="matrix(0.83333333,0,0,0.83333333,47.846925,404.85)"
         style="font-variant-ligatures:none"
         d="m 342.72519,-5.184 c 3.528,3.744 8.496,5.544 14.904,5.544 6.336,0 11.304,-1.8 14.904,-5.544 3.528,-3.672 5.328,-9.072 5.328,-16.2 V -50.4 h -3.672 v 28.872 c 0,6.192 -1.44,10.872 -4.248,13.896 -2.88,3.096 -6.912,4.608 -12.24,4.608 -5.4,0 -9.504,-1.512 -12.312,-4.608 -2.88,-3.024 -4.248,-7.704 -4.248,-13.896 V -50.4 h -3.672 v 29.016 c 0,7.128 1.728,12.528 5.256,16.2 z"
         id="path451948" /><path
         transform="matrix(0.83333333,0,0,0.83333333,60.346925,404.85)"
         style="font-variant-ligatures:none"
         d="m 421.56294,-17.64 c 3.744,-1.08 6.696,-2.952 8.712,-5.688 2.016,-2.736 3.096,-6.048 3.096,-10.08 0,-5.256 -1.8,-9.432 -5.4,-12.456 -3.6,-3.024 -8.568,-4.536 -14.904,-4.536 h -18.072 v 3.312 h 18.072 c 5.328,0 9.432,1.224 12.312,3.6 2.808,2.376 4.248,5.76 4.248,10.08 0,4.392 -1.44,7.776 -4.248,10.152 -2.88,2.376 -6.984,3.528 -12.312,3.528 h -18.072 V 0 h 3.672 v -16.488 h 14.4 c 1.44,0 3.096,-0.072 4.896,-0.36 L 429.98694,0 h 4.176 z"
         id="path451950" /><path
         transform="matrix(0.83333333,0,0,0.83333333,72.846925,404.85)"
         style="font-variant-ligatures:none"
         d="m 465.31756,-50.4 h -3.672 L 438.46156,0 h 3.96 l 21.024,-46.368 21.096,46.368 h 3.96 z"
         id="path451952" /><path
         transform="matrix(0.83333333,0,0,0.83333333,85.346925,404.85)"
         style="font-variant-ligatures:none"
         d="m 557.25369,-50.4 h -3.672 v 23.184 h -33.696 V -50.4 h -3.672 V 0 h 3.672 v -23.976 h 33.696 V 0 h 3.672 z"
         id="path451954" /><path
         transform="matrix(0.83333333,0,0,0.83333333,97.846925,404.85)"
         style="font-variant-ligatures:none"
         d="m 607.47031,-27.216 h -32.616 v 3.24 h 32.616 z m 0,-23.184 h -32.616 v 3.312 h 32.616 z m -32.616,47.088 V 0 h 32.616 v -3.312 z"
         id="path451956" /><path
         transform="matrix(0.83333333,0,0,0.83333333,110.34693,404.85)"
         style="font-variant-ligatures:none"
         d="m 641.52069,-50.4 h -3.672 L 614.66469,0 h 3.96 l 21.024,-46.368 21.096,46.368 h 3.96 z"
         id="path451958" /><path
         transform="matrix(0.83333333,0,0,0.83333333,122.84692,404.85)"
         style="font-variant-ligatures:none"
         d="M 673.85431,-50.4 V 0 h 32.688 v -3.312 h -29.016 V -50.4 Z"
         id="path451960" /><path
         transform="matrix(0.83333333,0,0,0.83333333,135.34693,404.85)"
         style="font-variant-ligatures:none"
         d="M 721.04919,-47.088 V 0 h 3.672 v -47.088 h 18.144 V -50.4 h -39.96 v 3.312 z"
         id="path451962" /><path
         transform="matrix(0.83333333,0,0,0.83333333,147.84693,404.85)"
         style="font-variant-ligatures:none"
         d="m 792.94119,-50.4 h -3.672 v 23.184 h -33.696 V -50.4 h -3.672 V 0 h 3.672 v -23.976 h 33.696 V 0 h 3.672 z"
         id="path451964" /></g></g></svg>